<?xml version="1.0" standalone="no"?>
<!DOCTYPE svg PUBLIC "-//W3C//DTD SVG 20010904//EN"
 "http://www.w3.org/TR/2001/REC-SVG-20010904/DTD/svg10.dtd">
<svg version="1.0" xmlns="http://www.w3.org/2000/svg"
 width="2154.000000pt" height="1668.000000pt" viewBox="0 0 2154.000000 1668.000000"
 preserveAspectRatio="xMidYMid meet">

<g transform="translate(0.000000,1668.000000) scale(0.100000,-0.100000)"
fill="#000000" stroke="none">
<path d="M12971 11134 c-35 -44 -27 -66 53 -146 34 -34 57 -93 71 -185 6 -40
5 -43 -17 -43 -106 -1 -197 -8 -214 -18 -12 -6 -27 -24 -33 -41 -16 -38 7 -87
47 -98 36 -10 116 -10 178 0 l51 8 6 -163 c4 -90 12 -209 19 -265 l11 -101
-26 -32 c-33 -39 -36 -91 -7 -120 11 -11 27 -20 35 -20 11 0 15 -12 15 -47 l0
-48 -158 -43 c-86 -24 -169 -43 -184 -42 -15 0 -30 -4 -33 -10 -13 -20 -25 -8
-61 63 -99 196 -235 337 -324 337 -45 0 -73 -27 -73 -70 0 -31 27 -70 48 -70
23 0 104 -81 148 -148 98 -148 169 -329 202 -516 20 -110 36 -136 87 -136 45
0 64 22 93 110 30 89 24 125 -24 143 -23 9 -31 21 -48 79 l-20 68 77 0 c62 0
82 4 103 20 23 18 136 60 163 60 14 0 25 -101 12 -117 -5 -6 -35 -23 -66 -38
-102 -48 -134 -98 -97 -152 24 -34 60 -37 121 -9 l54 25 0 -44 0 -45 -34 16
c-50 24 -91 1 -141 -79 -80 -125 -168 -252 -225 -322 -95 -116 -288 -293 -429
-394 -73 -52 -141 -106 -152 -120 -35 -45 -2 -111 56 -111 24 0 66 25 180 108
249 180 474 413 623 646 46 72 53 79 85 81 l35 2 6 -146 c9 -200 25 -530 31
-621 l5 -75 -33 -15 c-54 -25 -57 -57 -14 -144 50 -100 85 -136 131 -136 23 0
43 7 57 21 21 21 22 28 15 133 -21 362 -45 863 -46 955 l0 63 28 -17 c15 -10
101 -71 192 -135 329 -235 624 -402 825 -470 170 -57 304 -54 517 11 131 40
165 82 117 144 -19 23 -27 26 -63 22 -23 -2 -88 -19 -146 -36 -146 -45 -240
-45 -367 -2 -123 42 -198 76 -339 156 -194 110 -560 359 -519 354 91 -12 111
16 295 406 145 306 174 395 168 511 -4 84 -22 116 -84 151 -78 45 -347 25
-578 -42 -49 -14 -90 -24 -92 -22 -5 5 -24 256 -24 324 0 60 2 65 36 96 65 58
142 105 185 112 56 10 81 36 77 82 -2 26 -11 42 -31 57 l-27 20 -118 -28 c-64
-16 -122 -31 -128 -33 -7 -3 -14 18 -18 54 -25 203 -188 374 -265 277z m882
-1020 l37 -7 0 -54 c0 -64 -33 -155 -140 -383 -141 -302 -168 -350 -194 -350
-36 0 -69 -31 -70 -67 -1 -28 -3 -30 -16 -18 -27 24 -92 47 -116 41 -24 -6
-24 -6 -24 86 l0 93 51 30 c71 42 100 78 98 124 -1 20 3 49 10 64 39 98 -30
177 -153 177 -25 0 -26 2 -28 65 -1 36 -2 72 -2 81 -2 40 248 102 494 123 8 0
32 -2 53 -5z"/>
<path d="M2906 11109 c-18 -21 -26 -42 -26 -67 0 -20 18 -185 39 -367 22 -181
42 -361 46 -400 3 -38 8 -82 11 -96 5 -24 -3 -30 -88 -79 -166 -94 -218 -149
-218 -230 1 -49 12 -70 48 -89 47 -25 112 14 112 67 0 10 10 28 23 39 20 19
122 83 132 83 9 0 16 -81 36 -435 26 -479 37 -1036 20 -1088 -11 -33 -10 -42
9 -80 39 -75 93 -97 141 -58 l24 19 -3 284 c-1 155 -8 407 -15 558 -6 151 -12
309 -12 350 l0 75 180 22 c99 12 181 22 182 22 7 3 33 63 33 76 0 9 -14 30
-31 47 -30 30 -32 31 -100 24 -38 -3 -69 -2 -69 2 0 5 14 21 31 38 95 90 179
227 179 294 0 44 -30 94 -72 121 -30 18 -45 20 -148 16 -75 -2 -135 -10 -172
-22 -32 -10 -59 -17 -61 -14 -2 2 -23 169 -46 371 l-43 367 28 24 c51 44 30
112 -45 143 -56 23 -96 18 -125 -17z m514 -1015 c0 -27 -224 -264 -250 -264
-5 0 -10 15 -10 33 0 19 -3 68 -6 109 l-7 75 64 21 c35 11 73 23 84 25 31 7
125 8 125 1z"/>
<path d="M6463 11100 c-117 -17 -267 -81 -325 -138 -30 -30 -33 -75 -6 -105
35 -39 67 -43 112 -12 84 57 146 80 269 100 34 5 37 4 37 -19 0 -14 -15 -91
-34 -173 -19 -81 -51 -231 -70 -333 -25 -130 -42 -192 -56 -210 -55 -69 -60
-110 -20 -150 47 -47 127 -4 174 93 14 30 36 111 51 192 14 77 47 232 72 345
29 129 47 230 47 273 1 65 -1 70 -31 97 -52 46 -107 56 -220 40z"/>
<path d="M5212 10873 c-7 -2 -26 -26 -44 -51 -55 -82 -135 -170 -388 -427
-281 -285 -340 -357 -340 -417 0 -22 5 -48 11 -60 29 -54 154 -62 346 -22 69
14 127 23 130 21 2 -3 -27 -46 -65 -97 -98 -128 -136 -206 -140 -289 -4 -63
-2 -69 26 -99 27 -28 36 -32 84 -32 70 0 132 32 218 110 36 33 67 59 70 57 3
-1 44 -22 92 -46 96 -49 139 -54 172 -22 24 24 27 84 6 105 -8 8 -52 33 -98
56 -45 23 -87 52 -94 63 -17 33 -39 46 -77 47 -28 0 -45 -11 -112 -77 -43 -42
-81 -74 -84 -71 -11 11 204 288 270 348 15 14 36 33 46 43 45 41 9 127 -54
127 -18 0 -140 -24 -272 -54 -132 -30 -244 -52 -248 -49 -5 3 97 112 225 242
129 130 263 270 298 311 35 41 76 82 90 91 27 17 50 77 50 129 0 46 -68 83
-118 63z"/>
<path d="M6059 10761 c-20 -16 -25 -31 -29 -92 l-5 -72 -70 -29 c-38 -15 -73
-28 -76 -28 -4 0 -12 20 -18 44 -21 85 -74 125 -191 146 -86 16 -130 -9 -130
-75 0 -41 33 -69 102 -85 l63 -15 18 -110 c25 -157 77 -417 88 -436 14 -27 66
-44 94 -31 44 20 59 56 48 112 -6 27 -9 51 -7 53 2 1 21 1 43 -1 l41 -4 0 -92
c0 -50 3 -168 7 -261 l6 -170 -59 -24 c-133 -55 -217 -115 -230 -166 -17 -67
52 -116 167 -119 64 -1 73 1 90 23 14 17 19 36 17 60 -2 20 2 38 7 41 6 3 11
-23 13 -66 l3 -71 -60 -31 c-32 -18 -62 -39 -65 -48 -8 -21 -8 -58 0 -79 10
-26 62 -44 96 -34 20 5 30 4 33 -4 2 -7 6 -142 9 -302 5 -316 15 -401 63 -519
49 -122 132 -193 269 -231 90 -24 336 -31 460 -12 217 34 482 150 696 304 65
47 93 106 84 181 -30 262 -65 474 -81 492 -25 28 -88 27 -115 -2 -26 -28 -25
-44 6 -279 14 -107 26 -207 27 -224 2 -27 -6 -34 -97 -91 -284 -178 -500 -243
-770 -231 -253 11 -320 60 -362 262 -11 50 -17 165 -21 400 l-5 330 56 30 c31
16 73 46 92 66 31 32 38 47 45 106 21 160 21 176 -1 211 -26 43 -90 71 -157
72 -70 0 -70 21 -1 56 191 97 508 177 508 129 0 -41 -113 -289 -194 -427 -25
-42 -80 -113 -121 -157 -41 -44 -75 -89 -75 -100 0 -62 56 -103 110 -81 75 31
204 207 313 425 167 337 175 451 33 510 -33 14 -51 15 -134 5 -113 -14 -293
-64 -409 -114 -83 -35 -83 -35 -88 -13 -3 12 -4 78 -3 147 l3 125 42 -3 c57
-5 81 4 98 39 14 25 14 33 1 64 -8 19 -20 35 -25 35 -22 0 -10 23 38 76 62 68
95 134 86 173 -11 52 -69 90 -141 95 -40 2 -47 6 -61 34 -9 18 -33 48 -54 67
-45 40 -84 45 -120 16z m152 -304 c-13 -13 -26 -3 -16 12 3 6 11 8 17 5 6 -4
6 -10 -1 -17z m-181 -90 c0 -42 -1 -43 -56 -69 -59 -27 -61 -26 -66 27 -2 24
1 30 17 31 40 1 75 15 85 34 16 30 20 25 20 -23z m230 -879 c0 -7 -11 -26 -25
-43 l-24 -30 -1 43 c0 38 2 42 25 42 14 0 25 -6 25 -12z"/>
<path d="M1702 10597 c-32 -34 -28 -92 10 -120 22 -17 44 -20 140 -22 88 -2
125 -7 168 -23 30 -12 65 -22 78 -22 33 0 72 43 72 80 0 75 -111 120 -315 127
-128 5 -130 5 -153 -20z"/>
<path d="M16356 10419 c-34 -27 -34 -76 0 -149 52 -109 64 -158 64 -256 0
-120 -19 -232 -40 -238 -36 -11 -240 -45 -296 -50 -79 -7 -90 -12 -104 -45
-14 -34 -4 -78 20 -91 29 -15 145 -11 255 10 55 10 102 16 104 14 2 -2 -4 -45
-13 -96 -81 -429 -252 -768 -556 -1104 -33 -36 -63 -77 -66 -91 -9 -34 10 -71
42 -83 52 -20 73 -3 237 195 222 270 369 557 451 883 l21 84 145 -179 c353
-435 661 -672 1048 -807 202 -70 318 -80 487 -41 101 24 136 66 104 126 -19
36 -52 40 -147 18 -125 -30 -212 -23 -372 31 -290 97 -485 222 -745 477 -136
133 -390 442 -399 484 -4 24 -15 34 -46 47 -39 16 -41 19 -35 52 4 19 10 38
13 41 10 9 511 98 636 113 94 11 112 16 129 37 21 26 17 73 -8 98 -13 13 -137
39 -192 40 -12 1 -34 -10 -50 -23 -19 -16 -52 -27 -103 -36 -41 -7 -144 -25
-229 -41 -85 -16 -156 -27 -158 -25 -2 2 2 27 8 56 7 31 10 104 7 174 -4 113
-7 127 -41 206 -20 47 -37 95 -37 105 -1 36 -55 85 -93 85 -8 0 -26 -9 -41
-21z"/>
<path d="M1725 9900 c-159 -54 -326 -106 -370 -115 -61 -12 -85 -22 -102 -41
-29 -32 -29 -66 0 -99 43 -51 137 -32 567 116 249 86 280 104 280 158 0 29
-31 65 -65 74 -11 3 -145 -37 -310 -93z"/>
<path d="M2305 9945 c-51 -50 -35 -84 132 -277 126 -146 252 -261 324 -297 82
-41 112 -40 155 3 28 28 34 42 34 75 0 93 -57 135 -135 99 -25 -11 -31 -7
-131 93 -57 57 -137 144 -177 193 -40 49 -82 100 -94 113 -30 31 -76 30 -108
-2z"/>
<path d="M5395 9798 c-51 -28 -59 -82 -20 -140 36 -53 76 -122 188 -323 235
-424 255 -450 318 -426 72 27 70 77 -8 206 -79 132 -299 524 -336 598 -40 80
-93 112 -142 85z"/>
<path d="M1127 9663 c-11 -10 -8 -81 3 -88 6 -4 10 13 10 44 0 52 -1 56 -13
44z"/>
<path d="M2143 9445 c-12 -9 -48 -64 -79 -123 -78 -145 -217 -382 -274 -467
-79 -117 -200 -264 -230 -280 -20 -10 -33 -29 -44 -63 -26 -77 1 -122 72 -122
24 0 42 13 89 63 167 179 325 417 536 809 56 103 61 146 21 177 -32 25 -61 27
-91 6z"/>
<path d="M9663 9418 c-27 -13 -47 -60 -39 -93 3 -13 19 -33 33 -42 15 -10 64
-45 108 -78 125 -94 321 -215 349 -215 39 0 79 41 78 78 0 18 -3 36 -7 42 -3
5 -83 61 -178 125 -95 63 -193 131 -218 150 -52 39 -93 50 -126 33z"/>
<path d="M11085 9422 c-38 -8 -65 -43 -65 -86 0 -35 6 -46 49 -85 73 -69 220
-153 251 -146 52 13 79 61 61 108 -6 15 -45 46 -100 82 -50 31 -91 62 -91 69
0 17 -40 52 -65 58 -11 2 -29 2 -40 0z"/>
<path d="M9116 9388 c-24 -20 -29 -34 -37 -108 -12 -106 -47 -256 -62 -268 -7
-6 -46 -20 -87 -32 -100 -29 -117 -38 -130 -71 -25 -58 18 -109 92 -109 26 0
48 -3 48 -7 0 -11 -124 -242 -189 -351 -37 -63 -61 -115 -61 -133 0 -56 69
-95 115 -65 29 19 148 216 243 403 37 73 69 133 72 133 3 0 13 -66 23 -147 23
-184 62 -405 83 -460 16 -44 64 -93 91 -93 120 0 241 293 274 664 16 179 -6
262 -84 320 -24 18 -44 21 -135 22 l-107 2 -8 83 c-4 46 -10 108 -13 136 -6
61 -27 91 -70 99 -24 4 -37 0 -58 -18z m316 -493 c21 -78 -48 -515 -81 -515
-12 0 -65 356 -72 484 -4 59 7 66 90 63 52 -2 55 -4 63 -32z"/>
<path d="M19460 9353 c-25 -9 -59 -44 -91 -95 l-31 -48 -69 0 c-61 0 -73 -3
-94 -25 -44 -43 -25 -104 40 -125 l35 -11 -37 -72 c-77 -154 -86 -217 -36
-257 36 -28 52 -26 153 25 49 25 94 45 100 45 25 0 5 -33 -51 -87 -119 -113
-191 -227 -192 -303 -1 -62 27 -101 95 -130 46 -20 69 -23 173 -23 75 0 148 6
195 17 140 31 280 117 280 171 0 12 -9 34 -21 49 -27 35 -66 34 -122 -3 -24
-17 -79 -42 -123 -57 -67 -23 -97 -27 -196 -28 -64 -1 -120 3 -124 7 -10 10
18 62 56 105 33 36 40 39 40 18 0 -21 39 -46 70 -46 55 1 79 49 80 157 0 62
17 77 80 67 34 -6 45 -3 65 16 30 29 32 68 5 103 -33 42 -92 55 -152 32 -8 -3
-21 7 -31 25 -28 46 -70 63 -139 57 -32 -3 -58 -2 -58 1 0 4 17 36 38 72 24
42 44 66 57 67 11 1 64 5 119 8 112 8 136 22 136 79 0 43 -38 76 -86 76 -30 0
-34 3 -34 26 0 63 -69 109 -130 87z"/>
<path d="M10735 9306 c-81 -36 -98 -88 -103 -323 -6 -282 13 -389 75 -430 42
-28 89 -20 205 35 128 61 188 82 232 82 49 0 58 -17 46 -81 -15 -83 -79 -202
-185 -344 -101 -136 -111 -164 -75 -203 29 -31 65 -38 95 -18 55 36 212 256
270 378 35 74 65 191 65 254 0 93 -96 174 -208 174 -73 0 -142 -20 -255 -72
-48 -23 -90 -38 -95 -34 -9 10 -16 326 -7 382 5 35 12 46 40 63 40 23 52 59
35 100 -19 48 -76 63 -135 37z"/>
<path d="M5190 9272 c-40 -19 -65 -61 -111 -179 -18 -46 -35 -83 -39 -83 -15
0 -80 100 -80 124 0 39 -41 76 -84 76 -48 0 -65 -8 -81 -41 -31 -58 -12 -104
99 -237 112 -135 154 -159 215 -127 35 17 52 47 91 155 15 41 32 76 36 77 5 2
17 -9 27 -25 11 -15 38 -42 61 -59 63 -49 121 -43 145 15 16 38 2 73 -43 107
-19 15 -53 60 -76 101 -55 101 -99 127 -160 96z"/>
<path d="M4496 9225 c-28 -26 -33 -56 -16 -101 14 -36 14 -227 0 -329 -6 -44
-25 -132 -42 -195 -44 -164 -45 -180 -14 -209 31 -29 78 -32 106 -6 42 38 104
297 119 492 15 205 -9 342 -64 363 -40 15 -60 12 -89 -15z"/>
<path d="M20711 8484 c-12 -15 -21 -35 -21 -45 0 -25 70 -183 107 -242 36 -59
130 -156 160 -168 45 -17 93 18 93 68 0 27 -11 46 -59 97 -55 59 -126 179
-146 246 -21 70 -95 94 -134 44z"/>
<path d="M5954 7621 c-30 -13 -54 -50 -54 -82 0 -35 30 -71 84 -103 39 -23 45
-31 50 -69 12 -88 27 -530 19 -536 -4 -5 -64 -27 -133 -51 -294 -100 -410
-181 -413 -285 -2 -63 71 -108 122 -76 11 7 19 1 32 -27 18 -40 64 -92 80 -92
5 0 82 -72 171 -160 137 -136 165 -160 191 -160 17 0 40 9 53 21 l22 20 11
-32 c6 -18 11 -44 11 -58 0 -25 -6 -29 -107 -60 -246 -75 -364 -156 -435 -298
-17 -35 -34 -63 -38 -63 -12 0 -276 59 -435 97 -82 19 -208 56 -280 80 -154
53 -180 56 -212 19 -44 -51 -22 -104 56 -138 92 -39 368 -116 566 -158 189
-40 270 -60 327 -80 91 -32 133 -4 140 93 6 78 59 155 141 205 61 37 278 115
288 104 26 -28 37 -712 18 -1123 -9 -208 -13 -236 -30 -255 -10 -11 -19 -34
-19 -51 0 -61 4 -63 101 -63 84 0 89 1 94 23 21 98 33 1084 16 1292 -5 60 -8
112 -5 114 2 2 21 -12 43 -32 41 -37 93 -57 146 -57 137 1 428 142 641 313 88
70 106 121 61 173 -30 35 -94 41 -239 25 -130 -15 -204 -30 -451 -92 -109 -27
-200 -49 -201 -49 -2 0 -11 18 -21 40 -16 36 -17 46 -5 93 9 38 10 67 3 99
l-10 45 55 48 c70 62 92 99 92 153 0 93 -67 135 -215 134 -158 -1 -302 -40
-339 -94 -18 -26 -20 -65 -6 -102 14 -38 0 -32 -55 25 -100 103 -156 129 -197
92 -10 -9 -18 -11 -18 -5 0 42 371 194 451 185 27 -4 42 1 65 19 48 40 405
117 676 147 132 15 308 14 308 0 0 -7 -25 -49 -56 -95 -58 -89 -133 -172 -354
-397 -125 -127 -170 -184 -170 -214 0 -6 12 -25 26 -42 19 -23 34 -31 58 -31
27 0 50 19 177 148 320 324 443 478 483 605 29 93 6 162 -64 189 -32 12 -299
11 -426 -2 -109 -11 -379 -55 -409 -66 -11 -4 65 80 169 187 234 240 266 279
266 326 0 56 -26 98 -72 119 -76 34 -204 16 -222 -31 -19 -50 14 -115 57 -115
9 0 17 -5 17 -11 0 -6 -81 -93 -180 -193 -116 -118 -180 -191 -180 -204 0 -35
18 -70 39 -77 12 -3 21 -10 21 -14 0 -9 -118 -36 -125 -29 -3 2 -10 128 -16
279 -12 297 -20 346 -65 370 -15 7 -30 24 -35 36 -17 45 -105 75 -155 54z
m316 -1252 c-19 -17 -56 -41 -82 -55 -62 -31 -70 -60 -43 -154 6 -19 -9 -9
-64 45 l-71 70 32 8 c45 12 56 23 64 63 4 24 13 36 28 39 11 2 30 6 41 8 11 3
45 5 75 5 l55 1 -35 -30z m681 -462 c-18 -22 -223 -125 -291 -147 -84 -27
-101 -25 -139 12 -31 31 -32 32 -12 40 29 10 379 95 416 101 17 2 32 5 34 6 2
0 -2 -5 -8 -12z"/>
<path d="M5475 7255 c-49 -48 -21 -155 43 -168 22 -4 44 -23 72 -59 80 -102
199 -225 233 -241 40 -19 90 -8 107 23 23 44 12 71 -64 149 -40 42 -95 103
-121 136 -144 180 -211 220 -270 160z"/>
<path d="M2755 6955 c-281 -35 -447 -78 -482 -124 -15 -20 -17 -76 -2 -103 12
-23 83 -57 118 -58 15 0 37 14 60 38 39 42 61 49 261 78 121 18 351 28 368 16
10 -7 7 -30 -12 -113 -52 -218 -55 -490 -11 -919 9 -80 22 -208 30 -285 8 -77
21 -223 30 -325 8 -102 17 -200 20 -217 l4 -33 -25 17 c-23 15 -51 15 -327 4
-166 -6 -340 -14 -387 -18 l-84 -6 29 39 c16 22 71 92 121 156 259 327 299
393 299 505 0 62 -3 75 -25 98 -48 52 -89 65 -203 65 -119 0 -236 -18 -427
-66 -74 -19 -138 -34 -141 -34 -3 0 -9 55 -12 123 -4 67 -16 181 -27 252 -12
72 -25 185 -29 253 -9 138 -17 156 -88 204 -22 15 -46 41 -52 56 -20 48 -75
63 -153 42 -44 -13 -68 -43 -68 -85 0 -40 34 -73 126 -118 l71 -36 6 -118 c4
-65 11 -136 16 -158 6 -22 18 -107 28 -190 15 -129 18 -223 16 -667 -1 -509
-2 -517 -22 -539 -40 -43 -16 -110 50 -144 35 -19 69 -11 101 22 l23 25 9 439
9 439 24 0 c15 0 36 12 52 29 30 32 75 48 236 81 123 26 325 39 325 21 0 -31
-61 -130 -154 -249 -55 -71 -154 -198 -218 -280 -65 -83 -130 -159 -144 -169
-70 -49 -82 -87 -42 -138 l22 -28 135 7 c75 3 298 13 496 21 198 8 369 18 380
21 11 4 28 13 38 22 16 14 17 12 17 -26 0 -22 -4 -44 -10 -47 -19 -12 -11 -65
14 -90 48 -48 107 -43 143 12 15 23 18 45 15 133 -3 133 -24 396 -57 716 -50
480 -57 570 -57 754 -1 205 11 312 47 442 30 105 31 143 5 186 -35 57 -93 76
-245 78 -71 2 -179 -4 -240 -11z"/>
<path d="M4832 6690 c-42 -26 -57 -64 -41 -102 17 -41 42 -51 110 -43 54 6 64
4 116 -25 84 -47 117 -74 173 -141 55 -66 82 -140 102 -280 14 -96 36 -129 88
-129 86 0 138 81 91 142 -11 13 -24 52 -31 85 -23 128 -57 204 -131 293 -59
71 -146 138 -241 186 -57 29 -78 34 -135 34 -50 0 -77 -5 -101 -20z"/>
<path d="M9341 5892 c-35 -34 -38 -50 -16 -91 19 -37 31 -41 127 -41 45 0 110
-5 144 -11 56 -10 65 -15 83 -45 27 -46 66 -60 108 -40 59 28 57 112 -5 174
-54 54 -120 73 -279 79 l-132 6 -30 -31z"/>
<path d="M8695 5806 c-13 -13 -27 -40 -31 -61 -11 -59 2 -625 16 -669 35 -114
130 -115 248 -3 40 39 44 92 9 125 -26 24 -81 30 -93 10 -16 -26 -22 40 -23
242 0 189 1 207 19 230 36 46 19 104 -40 135 -42 22 -77 19 -105 -9z"/>
<path d="M9380 5474 c-64 -46 -67 -86 -9 -149 50 -54 114 -85 316 -154 157
-53 182 -58 213 -41 25 13 41 65 30 94 -14 37 -44 53 -192 101 -178 58 -188
63 -188 90 0 13 -8 33 -18 45 -26 32 -116 39 -152 14z"/>
<path d="M10842 5079 c-106 -53 -209 -235 -183 -326 27 -94 83 -133 192 -133
145 0 257 109 246 239 -12 138 -35 189 -98 222 -50 25 -103 24 -157 -2z m82
-181 c23 -32 20 -61 -9 -92 -28 -30 -95 -38 -95 -11 0 33 60 125 81 125 4 0
15 -10 23 -22z"/>
</g>
</svg>
