<?xml version="1.0" standalone="no"?>
<!DOCTYPE svg PUBLIC "-//W3C//DTD SVG 20010904//EN"
 "http://www.w3.org/TR/2001/REC-SVG-20010904/DTD/svg10.dtd">
<svg version="1.0" xmlns="http://www.w3.org/2000/svg"
 width="696.000000pt" height="338.000000pt" viewBox="0 0 696.000000 338.000000"
 preserveAspectRatio="xMidYMid meet">

<g transform="translate(0.000000,338.000000) scale(0.100000,-0.100000)"
fill="#000000" stroke="none">
<path d="M4522 3108 c-8 -8 -12 -49 -12 -118 l0 -105 -52 -19 c-71 -24 -98
-43 -98 -66 0 -33 33 -42 82 -24 90 33 84 38 92 -73 l5 -72 -50 -35 c-52 -38
-65 -76 -32 -94 14 -8 10 -12 -23 -21 -21 -6 -44 -11 -49 -11 -6 0 -24 28 -40
63 -32 67 -64 86 -84 49 -8 -15 0 -45 38 -138 26 -66 54 -137 61 -159 17 -52
28 -65 56 -65 17 0 25 7 30 24 6 23 31 42 42 31 9 -9 -113 -149 -173 -198 -33
-26 -77 -53 -98 -59 -50 -15 -66 -43 -39 -70 18 -18 24 -19 58 -8 64 21 114
58 206 152 48 48 94 88 102 88 13 0 16 -16 16 -96 0 -130 -17 -233 -42 -261
-19 -21 -20 -25 -7 -59 17 -45 42 -63 66 -48 22 14 50 154 59 300 l7 111 56
-29 c103 -52 203 -58 298 -17 46 20 49 19 31 -10 -14 -23 3 -51 32 -51 26 0
145 131 178 196 l28 56 29 -44 c43 -67 144 -157 190 -170 22 -6 94 -11 160
-12 l120 -1 0 30 c0 33 5 32 -207 51 -66 5 -68 6 -130 68 -35 34 -77 87 -95
117 -30 50 -31 57 -21 96 13 45 26 53 88 53 53 0 79 10 85 32 12 36 -13 50
-82 46 -60 -3 -63 -2 -63 20 0 36 -18 62 -44 62 -32 0 -50 -24 -50 -66 0 -32
-3 -35 -40 -45 -75 -19 -81 -21 -103 -35 -24 -15 -31 -58 -13 -69 20 -13 69
-8 85 9 31 31 42 20 35 -36 -8 -68 -63 -177 -113 -225 -22 -21 -37 -33 -34
-27 4 7 -1 22 -11 34 l-18 22 -55 -23 c-77 -34 -168 -32 -240 5 -81 41 -100
60 -106 107 l-6 40 34 -6 c49 -8 87 20 135 101 83 141 105 232 66 267 -24 22
-107 22 -186 2 -33 -9 -60 -14 -61 -13 -1 2 -5 40 -9 84 -5 71 -4 83 11 88 10
4 20 1 25 -9 13 -22 42 -18 77 11 38 32 53 57 45 78 -9 25 -39 28 -102 11 -33
-8 -63 -15 -67 -15 -5 0 -5 38 -1 85 5 77 4 87 -14 105 -23 23 -41 25 -58 8z
m278 -512 c0 -21 -78 -172 -97 -187 -15 -12 -16 -12 -8 6 26 63 15 90 -40 97
-25 2 -30 8 -33 35 -3 28 1 32 30 41 80 25 148 29 148 8z m-256 -81 c-4 -8
-15 -15 -26 -15 -17 0 -18 3 -8 15 7 8 19 15 26 15 8 0 11 -6 8 -15z m6 -105
c0 -8 -109 -70 -124 -70 -2 0 -7 7 -10 16 -7 18 21 43 59 56 32 10 75 9 75 -2z"/>
<path d="M1145 2866 c-15 -22 -14 -38 8 -193 21 -145 22 -169 10 -178 -8 -5
-36 -24 -61 -40 -52 -34 -76 -73 -74 -122 2 -42 -7 -37 -59 33 -42 58 -71 68
-89 34 -14 -26 -2 -48 70 -135 103 -125 200 -179 208 -117 3 18 -9 36 -50 73
-35 32 -47 48 -36 49 21 0 40 33 32 53 -8 22 12 55 46 72 29 15 30 15 36 -11
4 -14 4 -57 1 -95 -3 -39 -2 -71 4 -74 5 -4 9 -93 9 -209 0 -209 3 -226 41
-226 22 0 69 60 69 88 0 12 -6 25 -14 29 -12 6 -15 40 -17 156 -1 81 2 152 7
156 5 5 37 14 72 21 87 18 118 53 73 82 -19 11 -17 15 30 64 61 66 68 111 23
152 -29 26 -91 29 -173 10 -28 -6 -53 -10 -55 -7 -2 2 -13 66 -25 143 -18 121
-18 140 -6 153 18 17 18 19 5 44 -16 28 -65 25 -85 -5z m285 -404 c0 -10 -74
-81 -122 -116 l-37 -27 -6 44 c-10 67 -5 80 40 93 46 14 125 18 125 6z"/>
<path d="M2250 2851 c-48 -15 -139 -64 -144 -78 -9 -22 12 -53 34 -53 18 0 20
-7 20 -74 l0 -73 -31 -7 c-17 -3 -42 -6 -55 -6 -23 0 -24 2 -50 137 -12 62
-116 19 -286 -117 -129 -105 -146 -128 -120 -159 19 -24 47 -28 112 -16 l45 7
-92 -95 c-51 -53 -93 -104 -93 -113 0 -10 7 -26 16 -35 15 -17 15 -21 -1 -46
-10 -16 -52 -62 -92 -105 -57 -58 -74 -82 -71 -100 2 -15 11 -24 27 -26 27 -4
110 72 183 166 38 49 43 52 50 33 4 -12 12 -21 18 -21 8 0 11 -42 9 -132 -3
-152 5 -181 49 -176 l27 3 3 148 3 147 65 -35 c106 -56 174 -56 174 -1 0 24
-17 36 -50 36 -10 0 -55 18 -100 39 -45 22 -86 41 -90 43 -5 2 -12 22 -16 45
-6 40 -5 42 35 67 22 14 43 26 46 26 3 0 5 -15 5 -34 0 -41 21 -60 58 -53 24
5 30 0 59 -47 45 -74 111 -146 134 -146 21 0 24 -6 33 -60 8 -46 47 -87 94
-99 20 -5 112 -12 205 -15 l167 -5 16 24 c9 13 21 53 27 89 12 70 3 96 -34 96
-23 0 -35 -22 -43 -81 l-7 -47 -152 5 c-171 6 -191 13 -201 67 -10 50 7 76 48
76 72 0 178 141 178 238 0 39 -5 51 -28 70 -24 21 -35 24 -81 20 l-54 -5 25
21 c31 26 48 66 81 191 32 124 34 222 5 253 -17 18 -31 22 -78 21 -31 0 -68
-4 -82 -8z m104 -77 c9 -22 -9 -120 -40 -224 -20 -66 -31 -88 -49 -96 l-24
-11 0 163 -1 163 42 9 c62 14 65 14 72 -4z m-395 -170 c3 -2 10 -30 18 -62 7
-31 25 -104 40 -162 28 -104 28 -105 58 -105 27 0 30 3 33 38 3 32 7 37 28 37
20 0 24 -5 24 -27 0 -16 -7 -37 -15 -47 -8 -11 -13 -28 -10 -37 4 -10 -6 -28
-25 -47 l-30 -31 -31 46 c-27 38 -35 44 -59 41 -27 -4 -28 -2 -32 44 -7 64
-22 81 -71 76 l-39 -4 25 21 c13 11 32 31 40 46 15 23 15 27 0 48 -15 22 -21
23 -84 18 -38 -3 -69 -4 -69 -2 0 2 34 31 77 64 58 47 81 60 97 55 12 -4 23
-8 25 -10z m171 -149 c-24 -25 -36 -31 -42 -22 -15 23 -8 46 15 50 60 12 62 9
27 -28z m260 -165 c0 -6 -7 -27 -15 -47 l-15 -36 -23 21 c-16 15 -36 22 -62
22 -31 0 -37 3 -27 13 29 29 142 50 142 27z m-673 -147 c-3 -10 -5 -4 -5 12 0
17 2 24 5 18 2 -7 2 -21 0 -30z m443 -42 c0 -18 -18 -21 -30 -6 -10 13 -9 15
9 15 11 0 21 -4 21 -9z"/>
<path d="M608 2669 c-21 -12 -23 -42 -5 -58 7 -6 45 -18 83 -26 100 -23 100
-23 112 -50 14 -31 46 -32 66 -3 40 56 10 92 -94 114 -40 8 -81 19 -91 24 -23
13 -49 12 -71 -1z"/>
<path d="M6028 2533 c-92 -3 -109 -6 -117 -22 -15 -27 13 -61 50 -61 17 0 29
-3 27 -7 -60 -116 -52 -192 23 -208 l29 -7 -42 -59 c-36 -51 -42 -66 -42 -113
-1 -40 4 -60 19 -76 68 -77 224 -64 356 28 56 39 69 63 49 87 -18 22 -35 18
-87 -18 -63 -45 -123 -67 -179 -67 -121 0 -111 64 33 212 56 57 65 70 59 92
-8 31 -35 34 -89 11 -41 -17 -83 -20 -92 -5 -9 14 31 85 61 109 14 11 42 23
63 27 44 8 61 21 61 45 0 21 -30 40 -57 37 -10 -1 -66 -4 -125 -5z"/>
<path d="M3750 2420 c-25 -25 -25 -27 1 -95 17 -45 25 -55 43 -55 40 0 51 24
32 70 -9 22 -16 49 -16 60 0 11 -9 24 -20 30 -15 8 -24 6 -40 -10z"/>
<path d="M585 2380 c-73 -8 -92 -16 -100 -41 -12 -38 13 -52 80 -44 33 4 101
10 150 13 89 7 90 7 93 34 3 22 -2 30 -23 38 -28 11 -105 11 -200 0z"/>
<path d="M3258 2339 c-43 -25 0 -88 107 -154 76 -48 100 -52 118 -24 16 25 3
44 -55 76 -29 17 -61 39 -70 49 -9 11 -26 29 -38 42 -22 24 -36 27 -62 11z"/>
<path d="M3034 2316 c-9 -15 -15 -43 -14 -68 3 -64 2 -68 -20 -68 -28 0 -39
-27 -27 -65 8 -29 5 -40 -27 -95 -32 -54 -36 -67 -27 -88 19 -41 51 -25 91 45
19 34 38 63 41 63 4 0 15 -34 24 -75 23 -95 46 -135 80 -135 56 0 103 80 112
191 10 119 -31 192 -110 194 l-42 1 3 41 c2 23 -2 51 -8 62 -15 29 -56 27 -76
-3z m147 -198 c7 -13 10 -48 7 -90 -6 -74 -23 -109 -32 -67 -29 122 -36 161
-31 169 11 18 44 10 56 -12z"/>
<path d="M3542 2318 c-8 -8 -12 -52 -12 -133 0 -105 2 -124 18 -138 26 -24 50
-21 123 12 36 16 80 31 99 33 35 3 35 3 34 -35 -1 -33 -10 -48 -63 -101 -62
-62 -71 -82 -49 -104 23 -23 44 -12 110 56 69 70 88 109 88 185 0 24 -7 44
-20 57 -30 30 -122 28 -196 -5 -31 -14 -58 -25 -60 -25 -2 0 -4 39 -4 86 0 47
-5 94 -10 105 -12 21 -40 25 -58 7z"/>
<path d="M770 2093 c-95 -97 -191 -207 -206 -235 -15 -29 -11 -53 12 -62 21
-8 48 8 69 41 10 15 67 80 127 144 59 64 108 123 108 132 0 15 -28 37 -46 37
-4 0 -33 -26 -64 -57z"/>
<path d="M6705 1834 c-29 -29 -14 -53 50 -81 77 -33 119 -36 123 -7 3 24 -17
44 -82 78 -57 30 -69 32 -91 10z"/>
<path d="M2092 1498 c-28 -35 -76 -88 -106 -118 l-56 -54 0 87 c0 94 -10 127
-38 127 -36 0 -42 -20 -42 -146 0 -71 -4 -125 -10 -129 -5 -3 -10 -1 -10 5 0
6 -18 30 -40 54 -22 24 -40 47 -40 52 0 6 -13 25 -28 43 -25 30 -31 32 -50 22
-28 -15 -28 -28 4 -96 18 -38 41 -66 70 -87 24 -17 44 -40 46 -52 3 -18 9 -21
51 -19 26 2 60 9 75 17 44 22 178 46 263 46 111 0 179 -32 179 -84 0 -38 -35
-71 -119 -115 -75 -39 -98 -61 -85 -82 3 -5 -3 -9 -13 -9 -10 0 -28 -3 -40 -6
-18 -5 -21 -3 -17 14 3 10 -2 26 -10 35 -15 15 -15 19 4 49 24 40 26 76 4 106
-18 27 -57 29 -114 6 -33 -13 -40 -21 -40 -44 0 -32 19 -43 58 -33 l27 6 -20
-23 c-21 -24 -66 -50 -86 -50 -8 0 -10 15 -5 54 7 60 -7 83 -44 71 -25 -8 -40
-42 -40 -90 0 -78 41 -125 107 -125 24 0 43 -3 43 -7 0 -69 33 -485 40 -519
19 -85 52 -127 91 -117 28 8 30 30 8 73 -21 40 -33 110 -44 259 -5 76 -4 83
10 71 21 -17 72 -2 147 45 65 41 98 87 98 137 0 35 -32 78 -58 78 -17 0 -15
17 4 24 42 16 129 83 151 118 21 31 25 46 21 82 -7 56 -31 88 -93 123 -47 27
-57 28 -176 28 l-126 0 60 65 c56 61 97 116 97 132 0 11 -31 38 -44 38 -7 0
-35 -28 -64 -62z m126 -614 c52 -14 -1 -76 -103 -118 -22 -9 -43 -22 -47 -29
-5 -7 -8 1 -8 19 0 17 -3 45 -6 62 -7 36 11 49 85 62 25 4 48 8 51 9 3 0 15
-2 28 -5z"/>
<path d="M931 1396 c-24 -8 -53 -24 -66 -36 -43 -41 -40 -130 4 -130 23 0 38
18 43 50 5 39 41 51 138 48 168 -7 190 -37 190 -261 l0 -143 -132 0 c-109 0
-145 -4 -198 -22 -35 -12 -65 -20 -66 -19 -6 6 -6 246 0 268 6 20 2 32 -16 54
-21 24 -27 26 -46 16 -22 -12 -22 -12 -22 -357 l0 -344 -25 -10 c-27 -10 -33
-38 -13 -58 18 -18 70 -15 301 14 193 25 209 25 220 10 18 -24 88 -46 109 -35
23 13 23 45 -3 155 -18 74 -22 135 -28 369 -6 275 -6 282 -32 330 -37 72 -105
106 -226 111 -58 3 -103 -1 -132 -10z m261 -552 l46 -6 11 -103 c6 -56 16
-117 21 -136 19 -67 6 -90 -28 -49 l-17 20 -160 -20 c-88 -11 -175 -22 -192
-25 l-33 -6 0 140 0 139 68 20 c37 11 76 22 87 25 31 7 147 8 197 1z"/>
<path d="M1627 1216 c-11 -11 -13 -38 -10 -118 5 -126 18 -188 49 -233 13 -19
19 -35 14 -35 -5 0 -12 -11 -16 -25 -5 -19 1 -34 26 -62 18 -21 43 -43 54 -50
26 -15 79 -16 129 -2 32 8 37 14 37 39 0 35 -9 38 -80 33 -54 -5 -56 -4 -84
32 -21 27 -25 40 -17 48 16 16 14 38 -9 85 -14 29 -20 62 -21 114 -1 154 -27
218 -72 174z"/>
<path d="M2739 861 c-23 -18 -24 -26 -24 -128 1 -95 4 -115 27 -165 31 -67 66
-95 97 -78 25 13 27 42 5 61 -30 25 -47 74 -51 154 -5 66 -3 83 11 94 23 19
20 47 -6 65 -28 20 -31 20 -59 -3z"/>
<path d="M2898 840 c-22 -14 -23 -56 -2 -64 9 -3 37 -6 63 -6 26 0 69 -7 94
-16 39 -13 50 -14 63 -3 25 21 12 52 -30 73 -45 22 -163 32 -188 16z"/>
<path d="M2968 635 c-20 -44 28 -76 168 -114 83 -22 108 -21 118 5 12 31 -12
50 -90 69 -46 11 -88 29 -102 42 -34 31 -79 31 -94 -2z"/>
<path d="M3695 541 c-51 -23 -101 -79 -114 -128 -14 -50 -14 -59 4 -93 19 -36
85 -58 127 -42 17 6 30 7 34 1 3 -5 16 -9 30 -9 30 0 51 42 67 136 13 74 -1
117 -44 139 -36 19 -55 19 -104 -4z m72 -108 c-8 -69 -25 -109 -39 -95 -7 7
-25 12 -40 12 -37 0 -46 24 -24 64 19 35 60 65 90 66 17 0 18 -6 13 -47z"/>
<path d="M6946 15 c-3 -8 -1 -15 4 -15 6 0 10 7 10 15 0 19 -6 19 -14 0z"/>
</g>
</svg>
