<?xml version="1.0" standalone="no"?>
<!DOCTYPE svg PUBLIC "-//W3C//DTD SVG 20010904//EN"
 "http://www.w3.org/TR/2001/REC-SVG-20010904/DTD/svg10.dtd">
<svg version="1.0" xmlns="http://www.w3.org/2000/svg"
 width="776.000000pt" height="344.000000pt" viewBox="0 0 776.000000 344.000000"
 preserveAspectRatio="xMidYMid meet">

<g transform="translate(0.000000,344.000000) scale(0.100000,-0.100000)"
fill="#000000" stroke="none">
<path d="M6414 3298 c-9 -18 -38 -59 -65 -90 -31 -36 -50 -67 -50 -85 -1 -15
-5 7 -9 50 -8 83 -17 101 -43 91 -13 -5 -17 -24 -19 -97 l-3 -90 -40 -23 c-31
-17 -40 -28 -41 -51 0 -15 -4 -36 -8 -45 -5 -12 2 -42 19 -85 15 -38 29 -73
32 -79 2 -6 -10 -17 -27 -24 -18 -7 -33 -22 -36 -36 -8 -30 -15 -30 -44 1 -26
27 -65 33 -73 11 -7 -18 130 -156 154 -156 30 0 31 32 3 62 -15 15 -26 29 -23
31 22 19 86 57 95 57 8 0 13 -59 16 -191 5 -194 10 -215 45 -202 10 4 13 49
13 217 l0 212 68 24 c37 13 74 26 82 28 39 14 -27 -39 -69 -54 -62 -23 -78
-38 -61 -58 18 -23 49 -20 107 10 88 43 152 135 111 160 -20 13 -85 5 -164
-20 -43 -14 -80 -23 -83 -20 -3 2 3 26 12 52 23 62 21 89 -4 103 -25 13 -82 4
-99 -16 -7 -8 -22 -15 -34 -15 -55 0 170 97 267 114 36 7 38 6 27 -14 -6 -11
-31 -45 -56 -76 -45 -55 -53 -86 -24 -92 33 -6 137 123 147 181 8 50 -12 61
-102 54 l-75 -5 60 66 c51 55 60 71 58 96 -4 46 -41 48 -64 4z m-154 -373 c-7
-8 -20 -15 -29 -15 -12 0 -10 5 9 20 28 21 39 18 20 -5z"/>
<path d="M3477 3313 c-4 -3 -7 -37 -7 -74 0 -66 -1 -69 -30 -84 -33 -17 -41
-52 -14 -62 9 -3 25 -1 36 6 18 11 19 8 17 -66 0 -43 2 -90 6 -104 5 -21 2
-30 -16 -43 -36 -25 -47 -20 -54 27 -9 54 -30 87 -56 87 -27 0 -32 -20 -16
-61 8 -18 18 -61 21 -94 11 -96 26 -164 41 -179 12 -11 8 -22 -22 -67 -19 -30
-62 -81 -95 -115 -42 -43 -57 -65 -52 -77 21 -56 124 37 230 210 l36 58 -6
-181 c-5 -157 -4 -183 9 -194 13 -11 19 -11 30 1 11 10 16 58 21 182 4 92 9
167 12 167 2 0 23 -16 45 -36 54 -49 129 -82 207 -90 50 -5 68 -3 77 8 20 24
-2 39 -75 53 -38 8 -87 23 -109 33 -48 26 -165 131 -157 143 3 6 12 6 21 0 81
-45 202 210 133 279 -24 24 -39 25 -104 5 -27 -8 -53 -15 -58 -15 -4 0 -8 25
-8 55 0 60 0 60 72 56 28 -2 40 2 44 14 11 27 -21 49 -68 48 -47 -2 -58 7 -58
54 0 17 -3 38 -6 47 -6 16 -35 22 -47 9z m193 -336 c0 -33 -33 -125 -38 -107
-8 28 -35 50 -59 50 -17 0 -23 6 -23 20 0 15 13 27 43 40 57 26 77 26 77 -3z
m-180 -162 c0 -15 -47 -51 -55 -43 -7 7 34 58 46 58 5 0 9 -7 9 -15z"/>
<path d="M6046 3224 c-6 -16 34 -93 59 -114 19 -16 45 -6 45 17 0 10 -9 34
-21 53 -34 57 -70 77 -83 44z"/>
<path d="M1735 3180 c-58 -14 -85 -30 -96 -54 -10 -20 -15 -23 -29 -14 -10 6
-25 8 -35 4 -16 -6 -17 -15 -11 -79 9 -94 32 -205 48 -224 6 -8 20 -12 30 -10
23 6 24 -15 2 -48 -9 -14 -14 -31 -11 -39 3 -8 0 -20 -8 -26 -10 -9 -16 -1
-30 39 -16 48 -36 68 -57 55 -15 -9 -4 -83 27 -181 19 -61 31 -83 46 -88 12
-4 26 -2 32 4 21 21 37 12 38 -21 1 -54 24 -102 60 -126 29 -21 43 -23 99 -19
72 5 185 40 213 65 36 32 -2 136 -46 130 -23 -3 -25 -16 -12 -68 6 -23 2 -27
-42 -43 -26 -10 -78 -21 -114 -24 l-66 -6 -15 39 c-9 22 -17 59 -19 84 l-4 45
35 0 c29 0 37 5 56 39 23 40 54 148 54 185 0 48 -58 65 -125 37 l-35 -15 0 29
c0 24 5 29 27 32 25 3 30 11 55 88 26 81 37 194 21 203 -19 11 -61 14 -88 7z
m39 -92 c-4 -24 -10 -47 -14 -51 -13 -15 -57 11 -62 37 -6 29 1 36 46 47 17 4
32 7 34 8 1 1 -1 -18 -4 -41z m-137 -65 c-3 -10 -5 -4 -5 12 0 17 2 24 5 18 2
-7 2 -21 0 -30z m18 -92 c3 -5 1 -12 -5 -16 -5 -3 -10 1 -10 9 0 18 6 21 15 7z
m165 -155 c0 -8 -5 -27 -10 -42 -8 -21 -14 -24 -22 -16 -7 7 -22 12 -35 12
-33 0 -29 17 10 40 38 24 57 25 57 6z m-150 -150 c0 -7 -6 -19 -14 -25 -11 -9
-12 -6 -8 14 5 26 22 35 22 11z"/>
<path d="M865 3030 l7 -130 -36 -34 c-39 -36 -46 -66 -20 -87 14 -12 19 -10
39 15 l22 28 7 -168 c10 -229 22 -326 43 -341 26 -20 45 3 38 46 -8 50 -24
355 -19 360 2 3 35 15 72 27 62 20 67 24 67 50 0 16 8 46 18 66 14 29 15 42 7
58 -17 33 -61 36 -156 14 -20 -5 -22 0 -29 87 -8 112 -17 139 -46 139 -21 0
-21 -1 -14 -130z m159 -171 c-16 -17 -42 -40 -57 -51 l-28 -20 3 38 c3 33 7
39 38 50 19 7 44 13 54 13 17 1 16 -3 -10 -30z"/>
<path d="M5735 3116 c-105 -34 -163 -83 -133 -112 12 -12 23 -9 78 20 36 19
76 36 90 38 l25 3 12 -170 c6 -93 17 -197 22 -231 16 -87 2 -114 -59 -114 -25
0 -82 -9 -127 -19 l-83 -18 0 78 0 78 58 16 c31 10 84 21 116 26 64 9 82 19
73 43 -8 21 -83 21 -160 1 -89 -23 -87 -24 -87 53 0 108 -14 131 -68 111 -26
-10 -29 -31 -6 -50 14 -12 16 -41 13 -239 l-4 -225 25 0 c18 0 26 6 28 22 3
18 15 25 80 40 80 19 215 24 244 10 12 -6 20 -3 28 12 8 16 6 60 -10 184 -11
89 -24 222 -28 295 -5 73 -13 137 -18 142 -17 17 -68 20 -109 6z"/>
<path d="M1313 2954 c-93 -96 -113 -122 -111 -143 3 -23 8 -26 40 -26 l36 0
-31 -56 c-27 -49 -29 -59 -18 -73 7 -9 17 -16 21 -16 4 0 36 21 70 46 l63 46
31 -17 c37 -20 80 -17 84 7 2 12 -12 25 -47 43 -28 14 -57 25 -66 25 -21 0
-19 10 11 41 38 40 27 63 -28 56 l-41 -6 72 73 c74 75 87 107 46 114 -14 3
-50 -28 -132 -114z"/>
<path d="M6002 3058 c-29 -29 2 -188 44 -225 14 -13 30 -23 35 -23 17 0 23 32
9 54 -17 27 -40 113 -40 152 0 27 -15 54 -30 54 -3 0 -11 -5 -18 -12z"/>
<path d="M497 3033 c-4 -3 -7 -14 -7 -24 0 -14 20 -24 86 -44 92 -28 114 -27
114 4 0 32 -169 89 -193 64z"/>
<path d="M4160 2925 c-5 -14 -10 -35 -10 -45 0 -13 -14 -27 -40 -40 -39 -20
-60 -45 -60 -73 0 -26 32 -29 57 -6 30 29 30 14 2 -72 -25 -76 -61 -149 -101
-206 -33 -45 -30 -63 7 -63 28 0 79 72 120 170 15 36 29 68 32 73 2 4 36 -26
75 -68 75 -80 155 -128 236 -141 40 -6 42 -5 42 18 0 21 -7 27 -42 38 -75 22
-112 47 -185 124 -125 131 -129 164 -25 192 83 21 103 37 80 60 -13 14 -23 14
-67 5 -70 -15 -69 -15 -67 22 1 26 -3 33 -21 35 -17 3 -26 -3 -33 -23z"/>
<path d="M717 2863 c-19 -19 6 -84 65 -170 20 -31 36 -43 53 -43 37 0 38 14 1
67 -19 27 -46 73 -60 101 -24 48 -43 62 -59 45z"/>
<path d="M4786 2831 c-21 -17 -53 -35 -72 -41 -26 -9 -34 -17 -34 -36 0 -17 6
-24 20 -24 25 0 25 -1 -5 -60 -14 -27 -25 -56 -25 -65 0 -30 31 -28 76 4 24
18 44 29 44 25 0 -3 -15 -27 -34 -53 -100 -139 -44 -209 121 -151 58 20 133
64 133 78 0 4 -4 13 -9 20 -7 11 -25 7 -90 -22 -116 -51 -169 -47 -126 10 12
15 16 16 24 5 5 -8 16 -11 30 -6 17 5 21 14 21 50 0 43 5 52 44 79 28 19 14
48 -22 45 -15 -2 -42 3 -59 10 -29 12 -31 16 -21 35 15 28 28 36 59 36 29 0
52 20 41 35 -7 11 -68 55 -75 55 -2 0 -21 -13 -41 -29z"/>
<path d="M2968 2839 c-22 -12 -23 -31 -3 -69 15 -29 47 -40 59 -21 7 11 -12
72 -28 88 -8 8 -16 9 -28 2z"/>
<path d="M460 2784 c-101 -30 -122 -46 -98 -71 16 -15 23 -15 110 12 121 37
139 45 136 64 -5 25 -54 23 -148 -5z"/>
<path d="M2602 2788 c-18 -18 -15 -36 9 -48 11 -7 27 -27 35 -46 12 -27 20
-35 37 -32 30 4 32 34 5 88 -24 47 -60 64 -86 38z"/>
<path d="M2382 2771 c-7 -4 -17 -36 -22 -70 -5 -36 -17 -72 -27 -83 -11 -12
-19 -39 -20 -67 -2 -25 -4 -62 -5 -81 -5 -55 25 -51 50 7 l21 48 10 -28 c6
-15 14 -39 17 -52 8 -31 38 -58 60 -53 27 5 52 55 63 129 18 111 1 149 -67
149 -32 0 -42 14 -42 60 0 31 -20 53 -38 41z m92 -170 c8 -12 -5 -111 -15
-111 -10 0 -23 85 -15 105 6 16 22 20 30 6z"/>
<path d="M6838 2759 c-10 -5 -18 -19 -18 -29 0 -18 7 -20 90 -20 83 0 90 2 90
20 0 10 -9 24 -19 30 -25 13 -121 13 -143 -1z"/>
<path d="M2800 2681 c0 -44 4 -91 10 -105 13 -36 49 -42 100 -16 23 12 45 19
48 15 3 -3 -5 -40 -17 -83 -33 -109 -35 -123 -21 -132 26 -16 41 4 71 101 54
170 22 212 -117 153 -6 -3 -14 23 -20 68 -8 65 -12 73 -31 76 -22 3 -23 1 -23
-77z"/>
<path d="M6706 2684 c-3 -9 -6 -60 -6 -114 0 -76 4 -102 16 -114 21 -22 31
-20 50 10 13 19 14 28 5 37 -6 6 -11 46 -11 98 0 70 -3 88 -16 93 -24 9 -31 7
-38 -10z"/>
<path d="M1394 2626 c-18 -14 -18 -16 -1 -50 11 -23 24 -36 36 -36 29 0 33 15
17 53 -18 43 -28 50 -52 33z"/>
<path d="M591 2613 c-37 -32 -141 -167 -141 -184 0 -24 26 -42 44 -32 9 5 28
28 43 51 16 23 48 66 72 97 42 53 49 85 17 85 -7 0 -23 -8 -35 -17z"/>
<path d="M6881 2621 c-17 -11 -6 -47 16 -55 9 -4 42 -9 74 -13 50 -5 60 -3 65
11 9 23 -7 37 -53 46 -21 4 -49 10 -63 14 -14 3 -31 2 -39 -3z"/>
<path d="M1189 2608 c-1 -2 -3 -39 -5 -83 -3 -44 -6 -93 -7 -110 -2 -24 2 -31
20 -33 24 -4 36 26 49 125 9 72 0 103 -31 103 -14 0 -25 -1 -26 -2z"/>
<path d="M1294 2596 c-12 -32 40 -84 72 -72 21 8 17 34 -11 61 -27 28 -53 32
-61 11z"/>
<path d="M7200 2512 c-28 -23 -39 -106 -20 -152 25 -59 93 -45 127 26 15 30
15 39 4 72 -26 72 -65 91 -111 54z m42 -114 c-9 -20 -11 -18 -11 22 0 40 2 42
11 23 8 -17 8 -29 0 -45z"/>
<path d="M5124 2485 c-10 -26 2 -39 60 -64 44 -19 59 -21 70 -12 21 18 9 38
-39 66 -47 28 -83 32 -91 10z"/>
<path d="M4667 1891 c-22 -26 -25 -41 -32 -177 -5 -82 -10 -311 -10 -509 -1
-198 -7 -414 -13 -480 -7 -66 -13 -180 -15 -253 l-2 -134 28 -24 c41 -35 99
-33 138 5 25 26 29 37 29 88 0 32 7 119 14 193 8 74 17 171 21 215 l7 80 171
34 c301 59 500 90 578 91 l76 0 7 -277 c7 -329 10 -355 44 -388 35 -36 99 -35
136 1 24 25 26 33 26 113 0 47 -5 165 -11 261 -10 151 -9 202 6 370 10 107 19
294 21 415 2 121 9 241 15 267 14 59 -2 95 -52 122 -31 17 -40 18 -66 7 -71
-29 -91 -112 -99 -418 -4 -133 -10 -247 -14 -253 -3 -6 -60 -15 -126 -21 -115
-10 -304 -41 -579 -94 -71 -14 -134 -25 -139 -25 -6 0 -6 131 -1 328 13 467
14 440 -19 468 -41 36 -106 33 -139 -5z"/>
<path d="M1869 1881 c-26 -26 -29 -36 -29 -93 -2 -202 -21 -778 -35 -1055
l-18 -322 24 -48 c16 -33 35 -54 59 -65 90 -45 501 -2 759 80 141 45 184 110
129 192 -32 46 -65 53 -146 29 -131 -38 -168 -48 -262 -68 -108 -23 -242 -41
-312 -41 -39 0 -48 3 -48 18 0 9 7 87 15 172 17 178 42 1111 31 1153 -19 78
-111 104 -167 48z"/>
<path d="M3570 1874 c-43 -9 -153 -53 -205 -83 -207 -120 -388 -417 -426 -698
-34 -252 20 -441 166 -584 148 -145 312 -205 535 -196 128 5 205 27 306 88
164 99 318 327 381 567 22 85 26 119 27 267 1 102 -4 190 -11 221 -49 207
-157 328 -346 390 -73 24 -100 27 -242 30 -88 1 -171 0 -185 -2z m312 -219
c181 -38 255 -142 265 -371 12 -246 -80 -492 -239 -640 -118 -111 -250 -145
-421 -109 -137 29 -260 124 -315 242 -20 45 -27 78 -30 148 -14 315 188 653
437 729 62 19 213 20 303 1z"/>
<path d="M1106 1829 c-70 -55 -302 -407 -484 -735 -50 -89 -68 -113 -96 -127
-52 -24 -70 -57 -62 -116 6 -42 1 -58 -35 -137 -67 -145 -99 -232 -99 -270 0
-51 45 -94 97 -94 72 0 84 17 203 285 l67 149 154 33 c85 17 195 39 244 48 50
9 97 18 106 21 14 4 19 -8 28 -63 45 -269 110 -441 177 -472 70 -31 144 17
144 94 0 13 -18 75 -40 137 -35 98 -72 251 -161 668 -11 52 -38 186 -59 297
-42 219 -58 266 -101 288 -37 20 -51 19 -83 -6z m27 -554 c37 -177 37 -184 -8
-185 -11 0 -83 -13 -160 -29 -77 -17 -140 -29 -141 -28 -1 1 57 97 129 214 73
117 135 209 138 205 4 -4 23 -83 42 -177z"/>
<path d="M6889 1800 c-80 -86 -232 -318 -421 -644 -81 -140 -104 -173 -135
-190 -49 -28 -65 -59 -58 -116 4 -40 -3 -62 -61 -194 -37 -83 -68 -169 -71
-197 -5 -44 -3 -50 25 -78 42 -43 106 -44 144 -3 24 25 88 157 163 331 29 70
35 76 66 82 19 4 124 24 234 47 110 22 212 42 227 44 26 5 26 5 48 -111 43
-225 91 -355 150 -405 47 -39 102 -32 142 18 27 33 21 81 -26 218 -25 69 -52
159 -60 200 -8 40 -27 127 -41 193 -28 129 -113 546 -141 685 -20 103 -35 135
-74 155 -45 23 -61 19 -111 -35z m54 -517 c39 -186 39 -192 -8 -193 -11 0 -83
-13 -159 -30 -77 -16 -140 -29 -141 -27 -4 3 260 426 265 427 3 0 22 -80 43
-177z"/>
</g>
</svg>
