<?xml version="1.0" standalone="no"?>
<!DOCTYPE svg PUBLIC "-//W3C//DTD SVG 20010904//EN"
 "http://www.w3.org/TR/2001/REC-SVG-20010904/DTD/svg10.dtd">
<svg version="1.0" xmlns="http://www.w3.org/2000/svg"
 width="1304.000000pt" height="211.000000pt" viewBox="0 0 1304.000000 211.000000"
 preserveAspectRatio="xMidYMid meet">

<g transform="translate(0.000000,211.000000) scale(0.100000,-0.100000)"
fill="#000000" stroke="none">
<path d="M11291 2023 c-15 -12 -23 -30 -23 -49 0 -28 -43 -84 -177 -234 -44
-49 -50 -74 -24 -102 9 -10 11 -18 5 -18 -6 0 -17 -3 -26 -6 -14 -5 -16 10
-16 130 0 123 -2 138 -20 156 -24 24 -39 25 -66 6 -17 -13 -19 -28 -19 -179
l0 -165 -40 -18 c-61 -27 -114 -64 -121 -86 -13 -43 59 -94 82 -57 23 38 374
170 488 184 l58 8 -12 -24 c-24 -46 -105 -154 -153 -206 -57 -60 -62 -101 -15
-117 36 -13 80 21 156 122 127 166 154 250 97 299 -28 24 -34 25 -120 20 -49
-3 -101 -10 -115 -15 -14 -5 -38 -12 -55 -16 -30 -7 -30 -7 16 41 74 77 167
190 184 222 29 56 14 104 -36 116 -17 4 -33 0 -48 -12z"/>
<path d="M5930 2000 c-7 -13 -8 -61 -4 -137 l7 -118 -46 -22 c-25 -12 -54 -34
-63 -49 -16 -24 -16 -29 -3 -53 19 -34 55 -39 85 -10 13 12 27 19 31 16 12
-13 16 -228 4 -240 -15 -15 -13 -58 4 -81 8 -11 15 -31 15 -46 0 -22 -10 -31
-63 -57 l-63 -31 -17 101 c-14 91 -19 105 -47 130 -16 15 -38 27 -48 27 -51 0
-74 -67 -35 -99 20 -16 39 -108 49 -239 2 -26 12 -96 23 -157 19 -108 33 -135
68 -135 8 0 1 -19 -18 -53 -91 -153 -185 -272 -271 -340 -39 -32 -48 -45 -46
-66 2 -15 13 -30 28 -38 21 -10 30 -9 63 10 86 48 228 226 334 415 l51 94 5
-74 c2 -40 2 -149 -1 -243 -3 -93 -6 -215 -6 -270 l-1 -99 28 -10 c69 -25 74
2 83 392 l7 283 51 -49 c144 -138 274 -198 453 -209 103 -7 123 1 123 47 0 39
-15 46 -107 54 -98 8 -188 34 -263 77 -60 35 -270 234 -270 256 0 21 28 27 45
9 35 -34 103 -10 149 52 95 132 153 315 127 402 -29 96 -99 113 -251 60 -47
-16 -86 -30 -87 -30 -2 0 -3 47 -3 104 l0 104 36 12 c19 7 48 10 62 6 92 -19
89 -19 107 8 21 31 13 57 -22 78 -42 24 -95 31 -142 18 -24 -6 -45 -9 -48 -6
-3 3 -8 48 -12 100 -4 52 -13 102 -21 110 -18 23 -67 20 -80 -4z m358 -586
c14 -25 -12 -143 -47 -213 -17 -33 -33 -61 -34 -61 -2 0 -1 16 1 35 3 28 -1
40 -27 66 -28 27 -37 31 -77 27 l-45 -3 3 45 c3 43 5 46 51 68 39 19 132 49
159 51 4 1 11 -6 16 -15z m-203 -264 c-3 -5 -11 -10 -16 -10 -6 0 -7 5 -4 10
3 6 11 10 16 10 6 0 7 -4 4 -10z m-125 -72 c0 -29 -6 -36 -49 -60 -39 -22 -50
-24 -55 -13 -3 8 -1 17 4 20 6 4 10 15 10 25 0 18 52 57 78 59 7 1 12 -12 12
-31z"/>
<path d="M10606 1854 c-25 -24 -20 -46 27 -116 23 -36 50 -79 59 -97 19 -35
56 -42 82 -15 23 22 20 38 -19 113 -60 114 -111 153 -149 115z"/>
<path d="M2800 1764 c-57 -11 -147 -46 -175 -68 -16 -13 -37 -45 -46 -72 -11
-30 -18 -40 -18 -27 -1 27 -26 53 -51 53 -11 0 -29 -10 -40 -22 -18 -19 -21
-31 -15 -68 3 -25 12 -99 20 -165 17 -137 49 -279 71 -312 17 -27 50 -30 76
-6 17 15 18 14 18 -27 0 -32 -7 -51 -32 -82 -31 -39 -31 -42 -16 -68 15 -27
15 -28 -14 -50 -16 -12 -32 -20 -34 -17 -2 2 -14 37 -25 78 -25 90 -42 119
-73 119 -32 0 -60 -33 -53 -62 4 -13 26 -99 50 -193 24 -93 51 -184 60 -202
28 -53 72 -68 104 -34 10 10 27 21 39 25 20 6 22 2 28 -59 23 -229 109 -304
315 -278 92 12 230 54 323 98 75 35 87 62 58 134 -42 108 -58 131 -89 131 -29
0 -61 -22 -61 -41 0 -6 11 -35 26 -66 14 -31 21 -59 17 -63 -15 -13 -145 -61
-206 -75 -34 -8 -95 -15 -134 -15 -59 0 -77 4 -93 20 -26 26 -48 106 -58 208
-7 75 -6 84 10 93 13 7 25 5 43 -7 56 -37 108 23 161 182 85 259 43 367 -120
313 -34 -11 -71 -27 -83 -35 -37 -24 -43 -17 -43 46 l0 60 44 -6 c57 -8 61 -1
117 186 39 128 44 156 44 242 0 77 -3 101 -16 114 -17 17 -84 26 -129 18z m46
-156 c-12 -90 -27 -141 -39 -129 -6 6 -28 11 -48 11 -40 0 -49 11 -49 60 0 15
-7 33 -15 40 -12 10 -13 16 -5 24 16 16 100 44 134 45 l29 1 -7 -52z m-236
-118 c0 -34 -14 -60 -32 -60 -4 0 -8 30 -8 67 0 65 0 66 20 48 13 -12 20 -31
20 -55z m20 -197 c0 -20 -17 -50 -23 -43 -2 3 -7 17 -11 33 -5 23 -3 27 14 27
12 0 20 -7 20 -17z m300 -259 c0 -30 -32 -154 -41 -159 -5 -4 -9 1 -9 9 0 24
-41 46 -87 46 -77 0 -47 41 69 95 62 29 68 30 68 9z m-280 -303 c0 -33 -5 -43
-31 -61 -36 -26 -52 -18 -21 10 13 12 22 33 22 50 0 24 6 32 28 39 1 1 2 -17
2 -38z"/>
<path d="M1190 1705 c-15 -18 -15 -36 -1 -170 6 -55 13 -145 17 -201 l6 -101
-33 -23 c-61 -42 -89 -74 -100 -113 -12 -45 4 -80 41 -90 25 -6 60 23 60 51 0
11 9 27 20 37 20 18 20 17 20 -31 0 -72 29 -668 36 -744 14 -154 50 -209 109
-166 18 13 19 19 7 85 -16 92 -46 662 -35 672 12 11 171 65 216 73 53 10 69
45 39 86 -12 16 -18 31 -13 34 5 4 23 27 40 53 41 61 40 96 -3 139 -30 30 -40
34 -88 34 -46 0 -149 -23 -199 -44 -14 -6 -17 7 -23 101 -10 174 -28 304 -43
319 -19 19 -57 18 -73 -1z m350 -481 c0 -20 -189 -194 -211 -194 -5 0 -9 31
-9 69 l0 69 49 21 c72 31 171 51 171 35z"/>
<path d="M10050 1644 c-81 -22 -192 -77 -239 -119 -48 -44 -53 -76 -16 -101
24 -16 27 -15 92 30 73 49 186 96 231 96 l28 0 12 -237 c10 -212 34 -444 61
-588 8 -43 7 -51 -10 -63 -11 -8 -19 -25 -19 -42 0 -27 -2 -29 -28 -24 -43 9
-205 -18 -429 -71 l-23 -5 0 147 0 148 83 24 c45 13 105 30 132 38 28 7 87 17
133 20 73 5 86 9 99 30 14 21 14 25 -2 49 -17 27 -17 27 -119 21 -73 -4 -127
-14 -196 -36 -52 -17 -103 -31 -112 -31 -16 0 -18 14 -18 145 0 164 -10 199
-58 210 -33 7 -72 -6 -91 -29 -17 -21 2 -72 30 -79 18 -5 19 -17 19 -254 0
-136 -5 -320 -10 -407 -9 -138 -8 -162 5 -182 31 -48 95 -16 95 48 0 21 6 29
23 32 12 3 69 16 127 30 229 54 311 59 391 25 41 -18 54 -20 74 -11 23 11 25
17 25 84 0 40 -9 133 -20 207 -38 254 -50 379 -59 607 -6 138 -14 240 -21 255
-23 50 -86 61 -190 33z"/>
<path d="M2189 1527 c-50 -33 -388 -405 -395 -434 -16 -63 39 -96 117 -69 24
8 44 14 45 13 1 -1 -22 -42 -53 -91 -67 -108 -76 -147 -40 -171 14 -9 34 -14
44 -11 10 3 65 44 123 90 l105 84 40 -28 c23 -16 60 -33 84 -40 36 -9 47 -9
67 5 33 21 29 64 -6 81 -14 7 -41 19 -60 28 -19 9 -50 26 -68 37 -18 12 -48
21 -68 21 -40 0 -39 2 34 80 37 38 43 51 38 72 -9 38 -48 44 -121 18 -33 -11
-61 -20 -62 -19 -5 6 213 229 242 247 46 28 56 67 25 92 -29 24 -50 23 -91 -5z"/>
<path d="M10510 1530 c-26 -26 -26 -73 0 -199 27 -131 45 -180 82 -218 50 -52
108 -42 108 18 0 18 -9 34 -25 46 -19 14 -31 40 -50 117 -14 54 -25 125 -25
157 0 61 -21 99 -55 99 -8 0 -24 -9 -35 -20z"/>
<path d="M522 1488 c-7 -7 -12 -24 -12 -39 0 -36 31 -55 133 -79 46 -10 107
-28 136 -40 38 -15 57 -17 71 -10 24 13 34 44 21 68 -12 22 -83 55 -156 73
-28 6 -57 18 -66 25 -19 17 -111 18 -127 2z"/>
<path d="M10970 1431 c-40 -12 -84 -37 -103 -59 -18 -19 -20 -19 -47 -4 -27
15 -30 15 -49 -2 -26 -23 -26 -42 -2 -98 10 -24 31 -79 46 -123 15 -44 34 -88
42 -97 14 -15 10 -19 -34 -41 -77 -39 -96 -59 -97 -99 l-1 -36 -63 59 c-67 63
-97 72 -127 39 -24 -26 -13 -65 24 -84 15 -8 43 -32 61 -53 135 -157 185 -194
218 -161 17 17 15 63 -3 78 -9 7 -33 34 -55 60 -38 46 -39 47 -14 42 19 -3 32
2 50 22 14 14 51 40 84 56 l58 29 6 -23 c3 -12 8 -175 11 -362 5 -301 7 -340
22 -351 24 -18 47 -16 68 7 17 19 18 44 14 401 l-4 382 100 39 c116 45 219 72
208 55 -26 -43 -140 -113 -197 -122 -79 -13 -111 -59 -69 -100 41 -42 209 25
317 125 76 72 96 104 96 154 0 82 -97 86 -309 13 -69 -24 -133 -47 -142 -51
-33 -14 -32 39 1 104 71 140 17 239 -110 201z m40 -110 c0 -20 -43 -60 -76
-71 -19 -7 -37 -10 -40 -7 -7 7 84 87 101 87 8 0 15 -4 15 -9z m-61 -213 l-1
-43 -8 35 c-8 32 -6 50 6 50 2 0 4 -19 3 -42z"/>
<path d="M7186 1318 c-8 -13 -17 -43 -21 -68 -14 -101 -11 -97 -91 -135 -59
-29 -78 -43 -91 -71 -24 -49 -9 -88 34 -92 26 -3 35 2 50 25 20 31 33 43 49
43 8 0 7 -18 -3 -60 -45 -195 -143 -417 -218 -495 -45 -46 -56 -80 -33 -103
14 -14 53 -16 77 -2 52 28 156 206 215 371 17 47 36 86 41 85 6 0 38 -34 71
-76 78 -94 174 -187 241 -233 60 -40 263 -112 291 -103 22 7 40 43 35 68 -5
19 -5 19 -136 64 -54 18 -119 48 -145 68 -68 50 -189 178 -261 276 -61 83 -63
86 -57 134 3 27 9 53 13 57 10 10 199 59 228 59 51 0 73 68 31 95 -22 15 -32
14 -133 -8 -59 -14 -109 -24 -110 -23 -1 1 3 23 9 50 14 65 0 96 -42 96 -20 0
-34 -7 -44 -22z"/>
<path d="M934 1177 c-10 -6 -22 -15 -26 -21 -10 -14 1 -77 16 -96 7 -8 29 -49
49 -90 20 -41 58 -102 84 -135 42 -52 54 -60 82 -60 23 0 38 7 47 20 16 24 11
35 -56 118 -25 31 -65 102 -90 158 -47 106 -68 127 -106 106z"/>
<path d="M8326 1129 c-14 -16 -29 -36 -33 -43 -5 -7 -37 -23 -73 -35 -83 -27
-110 -46 -110 -76 0 -32 25 -55 61 -55 16 0 29 -2 29 -4 0 -3 -22 -51 -50
-107 -55 -112 -56 -117 -37 -143 25 -35 62 -23 132 43 36 33 70 61 75 61 19 0
10 -29 -18 -62 -78 -90 -142 -211 -142 -268 0 -148 234 -145 478 6 61 38 72
50 72 73 0 30 -16 51 -40 51 -9 0 -68 -27 -133 -59 -118 -60 -209 -88 -253
-77 -21 6 -22 9 -13 34 6 15 22 47 36 71 25 44 26 44 35 21 15 -42 54 -53 82
-24 12 11 16 36 16 93 0 68 3 80 23 99 13 12 33 22 45 22 27 0 56 42 47 68
-11 37 -101 52 -121 21 -3 -5 -19 2 -36 16 -19 16 -42 25 -64 25 l-34 0 30 53
c32 56 47 64 122 66 39 1 50 5 64 26 15 23 15 27 0 50 -12 17 -25 25 -46 25
-23 0 -33 6 -39 24 -18 45 -69 48 -105 5z"/>
<path d="M5002 1124 c-29 -20 -28 -65 2 -124 27 -55 61 -75 91 -56 28 19 30
48 6 95 -12 22 -21 47 -21 55 0 13 -36 46 -50 46 -3 0 -16 -7 -28 -16z"/>
<path d="M472 1027 c-185 -52 -212 -66 -212 -108 0 -41 82 -63 127 -34 14 9
89 34 167 56 134 36 176 58 176 90 0 16 -40 49 -57 48 -10 0 -101 -24 -201
-52z"/>
<path d="M4393 1061 c-31 -9 -73 -48 -73 -69 0 -29 23 -53 54 -55 25 -2 31 -9
47 -53 28 -85 36 -96 71 -92 45 4 55 27 40 85 -35 131 -86 198 -139 184z"/>
<path d="M3936 997 c-12 -9 -19 -31 -22 -73 -3 -32 -9 -89 -15 -126 -10 -61
-14 -70 -44 -88 -48 -30 -58 -65 -28 -96 16 -15 15 -21 -10 -98 -33 -96 -33
-107 -6 -132 18 -17 23 -17 46 -4 20 11 34 36 55 95 16 44 31 81 32 82 2 2 13
-36 25 -84 38 -150 87 -207 149 -172 56 31 103 178 105 324 2 119 -10 157 -59
180 -28 13 -44 14 -82 6 -25 -5 -50 -7 -54 -5 -4 3 -8 40 -8 82 0 107 -31 147
-84 109z m181 -379 c-6 -104 -24 -181 -37 -157 -10 17 -40 172 -40 205 0 25
25 42 64 43 17 1 18 -6 13 -91z"/>
<path d="M12110 1004 c-92 -16 -128 -42 -115 -84 10 -32 41 -43 81 -30 34 12
108 9 196 -6 31 -5 38 -3 48 16 19 35 5 66 -38 83 -41 16 -132 28 -172 21z"/>
<path d="M4710 965 c-9 -11 -11 -51 -8 -147 6 -162 22 -212 76 -235 34 -14 38
-14 106 22 39 21 82 41 95 46 24 9 24 9 17 -43 -4 -29 -29 -117 -55 -195 -44
-130 -47 -144 -34 -163 11 -15 23 -20 46 -18 30 3 34 8 65 87 18 47 44 125 58
175 63 238 -9 322 -196 227 -32 -17 -62 -26 -65 -22 -3 5 -8 65 -11 133 -4 67
-11 129 -17 136 -13 17 -62 15 -77 -3z"/>
<path d="M11804 856 c-18 -13 -19 -28 -19 -188 0 -200 6 -242 40 -264 21 -14
26 -14 53 0 42 22 57 67 31 100 -17 21 -19 41 -19 180 0 149 -1 155 -22 170
-28 20 -39 20 -64 2z"/>
<path d="M2158 743 c-18 -4 -34 -38 -29 -61 1 -8 16 -36 33 -63 24 -39 35 -49
57 -49 56 0 66 41 25 114 -22 39 -53 70 -66 65 -2 -1 -11 -3 -20 -6z"/>
<path d="M678 688 c-93 -109 -220 -272 -230 -294 -15 -33 -2 -73 28 -84 50
-20 94 9 94 60 0 13 47 79 115 162 63 77 115 148 115 158 0 26 -27 50 -54 50
-16 0 -38 -17 -68 -52z"/>
<path d="M12116 727 c-25 -18 -24 -67 3 -88 21 -17 169 -49 228 -49 37 0 58
28 49 66 -7 25 -38 37 -132 49 -28 4 -64 13 -79 21 -34 17 -46 18 -69 1z"/>
<path d="M1782 694 c-26 -18 -29 -59 -7 -84 13 -14 13 -28 -1 -116 -27 -181
-27 -183 -14 -199 15 -19 64 -20 79 -2 15 19 51 229 51 303 0 96 -48 140 -108
98z"/>
<path d="M1984 692 c-23 -15 -24 -45 -3 -78 41 -67 116 -96 139 -55 17 33 12
47 -36 95 -44 44 -75 55 -100 38z"/>
<path d="M12702 534 c-32 -22 -51 -64 -61 -140 -12 -82 1 -159 31 -191 27 -29
79 -39 118 -23 81 33 142 184 100 245 -3 6 -12 29 -19 52 -8 30 -20 47 -41 58
-38 19 -100 19 -128 -1z m68 -124 c0 -16 5 -40 11 -54 10 -20 9 -30 -5 -51 -9
-14 -21 -25 -26 -25 -11 0 -13 81 -4 129 8 39 24 40 24 1z"/>
<path d="M8930 480 c-11 -11 -20 -25 -20 -31 0 -20 21 -49 35 -49 8 0 53 -20
101 -45 82 -43 88 -45 110 -30 55 36 22 81 -103 144 -73 36 -96 38 -123 11z"/>
</g>
</svg>
